<svg width="295" height="143" viewBox="0 0 295 143" fill="none" xmlns="http://www.w3.org/2000/svg">
<path d="M123.39 96.4894L58.8702 30.6617L93.0899 0.620526H128.44L117.134 12.8247H97.6501L76.5077 31.3376L123.579 79.2157L140.048 63.0686L108.843 31.5629L140.651 0.695629H190.36L179.054 12.8247H145.588L126.066 31.6005L148.678 54.5444L204.153 0.357666L235.32 32.9148L171.592 95.1375L148.565 71.7054L123.39 96.4894ZM157.308 63.3314L171.818 78.0141L218.248 32.6144L203.814 17.6313L157.308 63.3314Z" fill="url(#paint0_linear_172_3010)"/>
<path d="M10.4803 130.398C10.9342 130.64 11.3223 130.988 11.6109 131.412C11.838 131.867 11.9542 132.369 11.9501 132.877V138.434C11.9585 138.991 11.8427 139.543 11.6109 140.049C11.4248 140.527 11.1426 140.961 10.7818 141.326C10.4111 141.689 9.97687 141.982 9.50041 142.19C8.96753 142.374 8.40616 142.463 7.84219 142.452H0.681679C0.41787 142.452 0.30481 142.452 0.30481 142.077V121.048C0.30481 120.785 0.30481 120.673 0.681679 120.673H7.38995C7.94182 120.659 8.49136 120.748 9.01048 120.935C9.50297 121.134 9.95123 121.427 10.3295 121.799C10.6904 122.164 10.9725 122.598 11.1586 123.076C11.3707 123.587 11.4734 124.137 11.4601 124.691V128.446C11.4545 128.824 11.3635 129.195 11.1938 129.533C11.0242 129.872 10.7803 130.167 10.4803 130.398ZM4.0735 128.896H6.44777C6.6162 128.898 6.78322 128.866 6.9387 128.801C7.09417 128.737 7.23487 128.641 7.35226 128.521C7.48923 128.418 7.60344 128.289 7.68775 128.14C7.77206 127.991 7.82464 127.827 7.84219 127.657V125.329C7.83012 124.993 7.69622 124.673 7.46532 124.428C7.31732 124.329 7.14934 124.265 6.97342 124.239C6.79751 124.213 6.618 124.226 6.44777 124.278H4.0735V128.896ZM8.06831 133.628C8.07473 133.459 8.04435 133.292 7.97928 133.136C7.91421 132.98 7.816 132.841 7.69144 132.727C7.57663 132.616 7.44089 132.529 7.29208 132.471C7.14328 132.413 6.98439 132.385 6.82464 132.389H4.0735V138.998H6.82464C7.15191 138.991 7.46336 138.856 7.69144 138.622C7.81808 138.51 7.91771 138.37 7.98295 138.214C8.04819 138.058 8.07736 137.89 8.06831 137.721V133.628Z" fill="#404041"/>
<path d="M24.8013 124.277H19.1483V129.046H23.2185C23.4446 129.046 23.5577 129.046 23.5577 129.422V132.163C23.5577 132.388 23.5577 132.539 23.2185 132.539H19.1483V139.185H24.8013C24.8523 139.179 24.9039 139.185 24.9524 139.202C25.0009 139.218 25.0449 139.246 25.0812 139.282C25.1175 139.318 25.1451 139.362 25.1619 139.41C25.1787 139.459 25.1842 139.51 25.1782 139.561V142.264C25.1842 142.315 25.1787 142.367 25.1619 142.415C25.1451 142.463 25.1175 142.507 25.0812 142.543C25.0449 142.58 25.0009 142.607 24.9524 142.624C24.9039 142.64 24.8523 142.646 24.8013 142.64H15.568C15.3042 142.64 15.1912 142.64 15.1912 142.264V121.236C15.1912 120.973 15.1912 120.86 15.568 120.86H24.8013C24.8523 120.854 24.9039 120.86 24.9524 120.876C25.0009 120.893 25.0449 120.921 25.0812 120.957C25.1175 120.993 25.1451 121.037 25.1619 121.085C25.1787 121.133 25.1842 121.185 25.1782 121.236V123.902C25.1842 123.953 25.1787 124.004 25.1619 124.052C25.1451 124.101 25.1175 124.145 25.0812 124.181C25.0449 124.217 25.0009 124.244 24.9524 124.261C24.9039 124.278 24.8523 124.283 24.8013 124.277Z" fill="#404041"/>
<path d="M37.4264 120.522H40.2906C40.5544 120.522 40.6675 120.522 40.6675 120.898V141.927C40.6675 142.189 40.6675 142.302 40.2906 142.302H37.3887C37.2943 142.313 37.1992 142.289 37.1223 142.233C37.0454 142.177 36.9925 142.095 36.9742 142.002L31.7357 128.295L32.0749 134.266V142.077C32.0809 142.128 32.0754 142.179 32.0586 142.227C32.0418 142.276 32.0142 142.319 31.9779 142.356C31.9416 142.392 31.8976 142.419 31.8491 142.436C31.8006 142.453 31.749 142.458 31.698 142.452H28.7961C28.7452 142.458 28.6935 142.453 28.645 142.436C28.5965 142.419 28.5525 142.392 28.5162 142.356C28.4799 142.319 28.4524 142.276 28.4356 142.227C28.4188 142.179 28.4132 142.128 28.4192 142.077V121.048C28.4132 120.997 28.4188 120.946 28.4356 120.897C28.4524 120.849 28.4799 120.805 28.5162 120.769C28.5525 120.733 28.5965 120.705 28.645 120.689C28.6935 120.672 28.7452 120.666 28.7961 120.672H31.9618C32.0562 120.661 32.1514 120.686 32.2282 120.742C32.3051 120.797 32.358 120.88 32.3764 120.973L37.3133 134.416L37.0495 127.807V121.048C37.0495 120.785 37.1626 120.522 37.4264 120.522Z" fill="#404041"/>
<path d="M52.0489 126.418V125.066C52.0609 124.926 52.0398 124.785 51.9875 124.655C51.9351 124.524 51.8529 124.408 51.7474 124.315C51.65 124.202 51.5281 124.113 51.391 124.055C51.2538 123.996 51.105 123.97 50.956 123.977H48.7325C48.4484 123.995 48.1807 124.115 47.9794 124.316C47.7782 124.516 47.6574 124.783 47.6395 125.066V128.37C47.6462 128.697 47.7816 129.007 48.0164 129.234C48.1293 129.36 48.2691 129.46 48.4257 129.525C48.5823 129.59 48.7515 129.619 48.9209 129.61H51.8982C52.4166 129.581 52.9352 129.66 53.4216 129.841C53.908 130.022 54.3516 130.301 54.7247 130.661C55.0926 131.03 55.3796 131.47 55.5678 131.955C55.7559 132.44 55.841 132.958 55.8176 133.477V138.509C55.8193 139.074 55.7171 139.634 55.5161 140.162C55.3206 140.634 55.0396 141.067 54.687 141.438C54.3099 141.802 53.8606 142.084 53.368 142.265C52.8513 142.464 52.3017 142.566 51.7474 142.565H47.9787C47.4327 142.611 46.8832 142.537 46.3686 142.349C45.854 142.162 45.3867 141.864 44.9992 141.478C44.6117 141.092 44.3134 140.626 44.125 140.114C43.9367 139.601 43.8628 139.053 43.9085 138.509V135.543C43.9085 135.28 43.9085 135.167 44.2854 135.167H47.3004C47.3513 135.161 47.403 135.167 47.4515 135.184C47.4999 135.2 47.544 135.228 47.5803 135.264C47.6165 135.3 47.6441 135.344 47.6609 135.392C47.6777 135.441 47.6833 135.492 47.6772 135.543V137.946C47.6701 138.091 47.6932 138.236 47.7451 138.372C47.797 138.508 47.8765 138.631 47.9787 138.735C48.084 138.835 48.2082 138.913 48.3441 138.964C48.4799 139.016 48.6248 139.04 48.7702 139.035H50.8052C50.9506 139.04 51.0955 139.016 51.2314 138.964C51.3672 138.913 51.4914 138.835 51.5967 138.735C51.6989 138.631 51.7784 138.508 51.8303 138.372C51.8822 138.236 51.9053 138.091 51.8982 137.946V134.191C51.9074 133.858 51.7857 133.535 51.559 133.29C51.4397 133.174 51.2978 133.085 51.1422 133.027C50.9865 132.968 50.8205 132.943 50.6545 132.952H47.8657C47.3418 132.97 46.8199 132.879 46.3332 132.686C45.8465 132.492 45.4058 132.199 45.0392 131.825C44.6597 131.456 44.3628 131.01 44.168 130.519C43.9731 130.027 43.8847 129.5 43.9085 128.971V124.465C43.9106 123.913 44.0127 123.366 44.21 122.85C44.4045 122.366 44.6854 121.921 45.0392 121.536C45.4118 121.185 45.8462 120.905 46.3205 120.71C46.8502 120.51 47.4122 120.408 47.9787 120.41H51.7474C52.3017 120.408 52.8513 120.51 53.368 120.71C53.8606 120.891 54.3099 121.172 54.687 121.536C55.0408 121.921 55.3217 122.366 55.5161 122.85C55.7134 123.366 55.8155 123.913 55.8176 124.465V126.268C55.8176 126.53 55.8176 126.643 55.4407 126.643H52.4258C52.3463 126.656 52.2648 126.641 52.1958 126.6C52.1267 126.558 52.0747 126.494 52.0489 126.418Z" fill="#404041"/>
<path d="M59.1341 124.615C59.1361 124.063 59.2383 123.516 59.4356 123.001C59.6435 122.515 59.9371 122.069 60.3024 121.686C60.6685 121.327 61.1045 121.046 61.5837 120.86C62.1004 120.66 62.65 120.558 63.2042 120.56H66.9729C67.5266 120.565 68.075 120.667 68.5935 120.86C69.0678 121.055 69.5022 121.335 69.8748 121.686C70.2401 122.069 70.5337 122.515 70.7416 123.001C70.9269 123.519 71.0163 124.066 71.0054 124.615V138.509C71.0192 139.072 70.9298 139.632 70.7416 140.162C70.5333 140.636 70.2396 141.069 69.8748 141.438C69.5022 141.79 69.0678 142.07 68.5935 142.265C68.075 142.458 67.5266 142.56 66.9729 142.565H63.2042C62.6679 142.594 62.1315 142.509 61.6311 142.314C61.1306 142.12 60.6775 141.821 60.3024 141.438C59.9213 141.053 59.6216 140.595 59.421 140.092C59.2203 139.589 59.1228 139.051 59.1341 138.509V124.615ZM62.9028 137.984C62.8914 138.13 62.9119 138.276 62.9629 138.413C63.0138 138.551 63.0939 138.675 63.1978 138.779C63.3016 138.882 63.4267 138.962 63.5644 139.013C63.7021 139.064 63.8493 139.084 63.9957 139.073H66.0684C66.2149 139.084 66.362 139.064 66.4997 139.013C66.6374 138.962 66.7625 138.882 66.8664 138.779C66.9702 138.675 67.0503 138.551 67.1013 138.413C67.1522 138.276 67.1727 138.13 67.1614 137.984V125.066C67.1634 124.927 67.1378 124.789 67.086 124.66C67.0343 124.532 66.9574 124.414 66.8599 124.315C66.7578 124.208 66.635 124.123 66.499 124.065C66.3629 124.007 66.2165 123.977 66.0684 123.977H63.9957C63.8477 123.977 63.7012 124.007 63.5651 124.065C63.4291 124.123 63.3063 124.208 63.2042 124.315C63.1067 124.414 63.0299 124.532 62.9781 124.66C62.9264 124.789 62.9008 124.927 62.9028 125.066V137.984Z" fill="#404041"/>
<path d="M83.442 120.522H86.3062C86.5701 120.522 86.6831 120.522 86.6831 120.898V141.927C86.6831 142.189 86.6831 142.302 86.3062 142.302H83.4044C83.31 142.313 83.2148 142.289 83.1379 142.233C83.061 142.177 83.0081 142.095 82.9898 142.002L77.7513 128.145L78.0905 134.116V141.927C78.0966 141.977 78.091 142.029 78.0742 142.077C78.0574 142.125 78.0298 142.169 77.9935 142.205C77.9572 142.242 77.9132 142.269 77.8647 142.286C77.8162 142.302 77.7646 142.308 77.7136 142.302H74.8117C74.7608 142.308 74.7091 142.302 74.6606 142.286C74.6122 142.269 74.5681 142.242 74.5318 142.205C74.4956 142.169 74.468 142.125 74.4512 142.077C74.4344 142.029 74.4288 141.977 74.4349 141.927V120.898C74.4288 120.847 74.4344 120.795 74.4512 120.747C74.468 120.699 74.4956 120.655 74.5318 120.619C74.5681 120.583 74.6122 120.555 74.6606 120.538C74.7091 120.522 74.7608 120.516 74.8117 120.522H77.9774C78.0718 120.511 78.167 120.536 78.2439 120.591C78.3208 120.647 78.3737 120.73 78.392 120.823L83.2159 134.416V127.807V121.048C83.2159 120.785 83.2159 120.522 83.442 120.522Z" fill="#404041"/>
<path d="M107.863 129.084C107.914 129.078 107.966 129.084 108.014 129.1C108.063 129.117 108.107 129.145 108.143 129.181C108.179 129.217 108.207 129.261 108.224 129.309C108.24 129.357 108.246 129.409 108.24 129.46V132.126C108.246 132.177 108.24 132.228 108.224 132.276C108.207 132.325 108.179 132.369 108.143 132.405C108.107 132.441 108.063 132.468 108.014 132.485C107.966 132.502 107.914 132.507 107.863 132.501H106.846V138.51C106.847 139.074 106.745 139.634 106.544 140.162C106.349 140.634 106.068 141.067 105.715 141.439C105.338 141.802 104.889 142.084 104.396 142.265C103.879 142.465 103.33 142.566 102.775 142.565H99.0067C98.4704 142.594 97.934 142.509 97.4335 142.314C96.933 142.12 96.48 141.822 96.1048 141.439C95.7238 141.053 95.4241 140.595 95.2234 140.092C95.0228 139.589 94.9252 139.051 94.9365 138.51V133.74C94.9176 133.122 95.0333 132.507 95.2757 131.938C95.504 131.477 95.8247 131.068 96.2179 130.736C95.7734 130.447 95.416 130.042 95.1837 129.566C94.9514 129.09 94.853 128.56 94.8988 128.033V124.465C94.9009 123.913 95.003 123.366 95.2003 122.851C95.3948 122.366 95.6757 121.921 96.0295 121.536C96.4021 121.185 96.8365 120.905 97.3108 120.71C97.8405 120.51 98.4025 120.408 98.969 120.41H102.549C102.6 120.404 102.652 120.409 102.7 120.426C102.749 120.443 102.793 120.47 102.829 120.506C102.865 120.542 102.893 120.586 102.91 120.635C102.927 120.683 102.932 120.734 102.926 120.785V123.451C102.932 123.502 102.927 123.554 102.91 123.602C102.893 123.65 102.865 123.694 102.829 123.73C102.793 123.766 102.749 123.794 102.7 123.811C102.652 123.827 102.6 123.833 102.549 123.827H99.7981C99.5141 123.845 99.2464 123.965 99.0451 124.166C98.8439 124.366 98.723 124.633 98.7052 124.916V128.033C98.7052 128.341 98.8283 128.637 99.0474 128.856C99.2665 129.074 99.5637 129.197 99.8735 129.197H103.077L104.321 127.019V125.554C104.321 125.291 104.321 125.179 104.697 125.179H107.788C108.052 125.179 108.165 125.179 108.165 125.554V127.056L107.072 129.197L107.863 129.084ZM103.039 132.501H99.7981C99.6449 132.496 99.4922 132.522 99.3499 132.579C99.2077 132.636 99.0791 132.722 98.9724 132.832C98.8658 132.942 98.7835 133.073 98.731 133.216C98.6785 133.36 98.6569 133.513 98.6675 133.665V137.984C98.6604 138.129 98.6835 138.274 98.7354 138.41C98.7873 138.545 98.8668 138.669 98.969 138.772C99.0743 138.872 99.1985 138.95 99.3344 139.002C99.4702 139.054 99.6151 139.078 99.7605 139.073H102.059C102.206 139.084 102.353 139.064 102.491 139.013C102.628 138.962 102.753 138.882 102.857 138.779C102.961 138.675 103.041 138.551 103.092 138.414C103.143 138.276 103.164 138.13 103.152 137.984L103.039 132.501Z" fill="#404041"/>
<path d="M127.272 121.048V142.077C127.272 142.34 127.272 142.452 126.895 142.452H123.88C123.829 142.458 123.778 142.453 123.729 142.436C123.681 142.419 123.637 142.392 123.6 142.356C123.564 142.319 123.536 142.276 123.52 142.227C123.503 142.179 123.497 142.128 123.503 142.077V132.576H119.735V142.077C119.741 142.128 119.735 142.179 119.718 142.227C119.701 142.276 119.674 142.319 119.638 142.356C119.601 142.392 119.557 142.419 119.509 142.436C119.46 142.453 119.409 142.458 119.358 142.452H116.343C116.079 142.452 115.966 142.452 115.966 142.077V121.048C115.966 120.785 115.966 120.672 116.343 120.672H119.358C119.409 120.666 119.46 120.672 119.509 120.689C119.557 120.705 119.601 120.733 119.638 120.769C119.674 120.805 119.701 120.849 119.718 120.897C119.735 120.946 119.741 120.997 119.735 121.048V129.084H123.503V121.048C123.497 120.997 123.503 120.946 123.52 120.897C123.536 120.849 123.564 120.805 123.6 120.769C123.637 120.733 123.681 120.705 123.729 120.689C123.778 120.672 123.829 120.666 123.88 120.672H126.895C127.159 120.522 127.272 120.785 127.272 121.048Z" fill="#404041"/>
<path d="M144.043 141.964C144.072 142.016 144.088 142.074 144.088 142.133C144.088 142.193 144.072 142.251 144.043 142.302C143.983 142.327 143.919 142.34 143.854 142.34C143.789 142.34 143.725 142.327 143.666 142.302H140.387C140.347 142.307 140.307 142.305 140.268 142.294C140.23 142.284 140.194 142.266 140.162 142.242C140.131 142.217 140.104 142.187 140.085 142.152C140.065 142.117 140.052 142.079 140.048 142.039L139.445 138.697H134.809L134.206 142.039C134.202 142.079 134.189 142.117 134.17 142.152C134.15 142.187 134.124 142.217 134.092 142.242C134.06 142.266 134.024 142.284 133.986 142.294C133.947 142.305 133.907 142.307 133.867 142.302H130.588C130.536 142.329 130.478 142.342 130.419 142.342C130.36 142.342 130.302 142.329 130.249 142.302C130.223 142.25 130.209 142.192 130.209 142.133C130.209 142.075 130.223 142.017 130.249 141.964L135.073 121.011C135.078 120.961 135.092 120.913 135.116 120.869C135.139 120.826 135.171 120.787 135.21 120.755C135.248 120.724 135.293 120.7 135.34 120.686C135.388 120.672 135.438 120.667 135.488 120.673H138.917C139.02 120.669 139.121 120.701 139.203 120.762C139.285 120.824 139.344 120.911 139.369 121.011L144.043 141.964ZM138.729 135.318L137.485 128.521L137.146 125.93L136.807 128.521L135.525 135.318H138.729Z" fill="#404041"/>
<path d="M158.854 142.039C158.854 142.34 158.854 142.452 158.59 142.452H155.424C155.33 142.467 155.233 142.449 155.151 142.401C155.069 142.353 155.005 142.279 154.972 142.19L152.334 134.229H150.713V142.077C150.719 142.128 150.714 142.179 150.697 142.227C150.68 142.276 150.652 142.32 150.616 142.356C150.58 142.392 150.536 142.419 150.487 142.436C150.439 142.453 150.387 142.459 150.336 142.452H147.284C147.02 142.452 146.907 142.452 146.907 142.077V121.048C146.907 120.785 146.907 120.673 147.284 120.673H154.293C154.845 120.662 155.394 120.751 155.914 120.935C156.402 121.143 156.849 121.435 157.233 121.799C157.586 122.17 157.867 122.603 158.062 123.076C158.256 123.593 158.358 124.139 158.364 124.691V130.173C158.371 130.982 158.149 131.776 157.723 132.464C157.294 133.095 156.692 133.59 155.989 133.891L158.854 142.039ZM150.713 130.774H153.502C153.656 130.775 153.808 130.745 153.95 130.687C154.093 130.629 154.222 130.544 154.331 130.436C154.53 130.207 154.637 129.913 154.633 129.61V125.254C154.643 125.101 154.622 124.949 154.569 124.805C154.517 124.661 154.434 124.531 154.328 124.421C154.221 124.311 154.092 124.225 153.95 124.168C153.808 124.111 153.655 124.084 153.502 124.09H150.713V130.774Z" fill="#404041"/>
<path d="M165.788 121.048V138.998H171.516C171.78 138.998 171.893 138.998 171.893 139.373V142.077C171.893 142.34 171.893 142.452 171.516 142.452H162.358C162.307 142.458 162.256 142.453 162.207 142.436C162.159 142.419 162.115 142.392 162.078 142.356C162.042 142.319 162.015 142.276 161.998 142.227C161.981 142.179 161.975 142.128 161.981 142.077V121.048C161.937 120.99 161.913 120.92 161.912 120.848C161.911 120.776 161.933 120.705 161.975 120.646C162.017 120.588 162.077 120.544 162.146 120.521C162.215 120.499 162.29 120.499 162.358 120.522H165.373C165.444 120.482 165.527 120.469 165.606 120.484C165.686 120.5 165.758 120.543 165.808 120.607C165.858 120.671 165.884 120.75 165.88 120.831C165.876 120.912 165.844 120.989 165.788 121.048Z" fill="#404041"/>
<path d="M184.443 124.277H178.601V129.046H182.86C183.124 129.046 183.237 129.046 183.237 129.422V132.163C183.243 132.214 183.237 132.265 183.221 132.314C183.204 132.362 183.176 132.406 183.14 132.442C183.104 132.478 183.06 132.506 183.011 132.522C182.963 132.539 182.911 132.545 182.86 132.539H178.601V139.185H184.443C184.707 139.185 184.82 139.185 184.82 139.561V142.265C184.82 142.527 184.82 142.64 184.443 142.64H175.247C174.983 142.64 174.87 142.64 174.87 142.265V121.236C174.87 120.973 174.87 120.86 175.247 120.86H184.443C184.707 120.86 184.82 120.86 184.82 121.236V123.902C184.971 123.977 184.707 124.277 184.443 124.277Z" fill="#404041"/>
<path d="M187.646 120.522H191.001C191.227 120.522 191.377 120.522 191.415 120.785L194.505 128.295L197.558 120.785C197.558 120.785 197.558 120.522 198.01 120.522H201.327C201.628 120.522 201.741 120.522 201.628 120.935L196.277 133.44V142.077C196.277 142.34 196.277 142.452 195.9 142.452H192.923C192.659 142.452 192.546 142.452 192.546 142.077V133.44L187.27 121.085C187.27 120.785 187.345 120.522 187.646 120.522Z" fill="#404041"/>
<path d="M215.949 120.522C216.501 120.512 217.05 120.601 217.57 120.785C218.058 120.992 218.504 121.285 218.889 121.649C219.241 122.02 219.522 122.453 219.718 122.926C219.912 123.442 220.014 123.989 220.019 124.54V129.91C220.021 130.475 219.919 131.035 219.718 131.562C219.522 132.035 219.241 132.468 218.889 132.839C218.503 133.192 218.056 133.472 217.57 133.665C217.052 133.862 216.503 133.964 215.949 133.966H212.18V141.927C212.187 141.977 212.181 142.029 212.164 142.077C212.147 142.126 212.12 142.169 212.084 142.206C212.047 142.242 212.003 142.269 211.955 142.286C211.906 142.303 211.855 142.308 211.804 142.302H208.789C208.525 142.302 208.412 142.302 208.412 141.927V120.898C208.412 120.635 208.412 120.522 208.789 120.522H215.949ZM216.251 125.104C216.258 124.95 216.232 124.796 216.173 124.653C216.115 124.51 216.025 124.382 215.911 124.278C215.786 124.225 215.652 124.198 215.516 124.198C215.38 124.198 215.245 124.225 215.12 124.278H212.331V130.811H215.12C215.269 130.816 215.417 130.788 215.553 130.73C215.69 130.672 215.812 130.584 215.911 130.473C216.025 130.369 216.115 130.241 216.173 130.098C216.232 129.955 216.258 129.801 216.251 129.647V125.104Z" fill="#404041"/>
<path d="M226.426 142.077V124.277H222.884C222.833 124.283 222.781 124.278 222.733 124.261C222.684 124.244 222.64 124.217 222.604 124.181C222.567 124.145 222.54 124.101 222.523 124.052C222.506 124.004 222.501 123.953 222.507 123.902V121.048C222.501 120.997 222.506 120.946 222.523 120.897C222.54 120.849 222.567 120.805 222.604 120.769C222.64 120.733 222.684 120.705 222.733 120.689C222.781 120.672 222.833 120.666 222.884 120.672H233.964C234.227 120.672 234.34 120.672 234.34 121.048V123.902C234.34 124.165 234.34 124.277 233.964 124.277H230.195V142.077C230.201 142.128 230.195 142.179 230.179 142.227C230.162 142.276 230.134 142.319 230.098 142.356C230.062 142.392 230.018 142.419 229.969 142.436C229.921 142.453 229.869 142.458 229.818 142.452H226.803C226.615 142.452 226.426 142.34 226.426 142.077Z" fill="#404041"/>
<path d="M236.677 120.522H239.993C240.257 120.522 240.37 120.522 240.446 120.785L243.498 128.295L246.589 120.785C246.589 120.785 246.777 120.522 247.003 120.522H250.357C250.659 120.522 250.734 120.522 250.659 120.935L245.27 133.44V142.077C245.27 142.34 245.27 142.452 244.893 142.452H241.878C241.652 142.452 241.539 142.452 241.539 142.077V133.44L236.262 121.085C236.262 120.785 236.375 120.522 236.677 120.522Z" fill="#404041"/>
<path d="M261.324 121.048V138.997H267.09C267.354 138.997 267.467 138.998 267.467 139.373V142.077C267.467 142.34 267.467 142.452 267.09 142.452H257.97C257.706 142.452 257.593 142.452 257.593 142.077V121.048C257.593 120.785 257.593 120.672 257.97 120.672H260.947C261.211 120.522 261.324 120.785 261.324 121.048Z" fill="#404041"/>
<path d="M271.876 142.077V124.277H268.334C268.07 124.277 267.957 124.277 267.957 123.902V121.048C267.957 120.785 267.957 120.672 268.334 120.672H279.188C279.452 120.672 279.565 120.672 279.565 121.048V123.902C279.565 124.165 279.565 124.277 279.188 124.277H275.645V142.077C275.645 142.34 275.645 142.452 275.268 142.452H272.291C271.99 142.452 271.876 142.34 271.876 142.077Z" fill="#404041"/>
<path d="M282.467 142.077V121.048C282.467 120.785 282.467 120.673 282.843 120.673H289.929C290.493 120.662 291.054 120.751 291.587 120.935C292.063 121.143 292.498 121.436 292.868 121.799C293.229 122.164 293.511 122.598 293.697 123.076C293.909 123.587 294.012 124.137 293.999 124.691V138.434C294.019 138.988 293.916 139.54 293.697 140.049C293.511 140.527 293.229 140.961 292.868 141.326C292.498 141.689 292.063 141.982 291.587 142.19C291.054 142.374 290.493 142.463 289.929 142.452H282.956C282.58 142.452 282.467 142.34 282.467 142.077ZM286.235 124.09V139.11H289.024C289.351 139.104 289.663 138.969 289.891 138.735C290.017 138.622 290.117 138.483 290.182 138.327C290.248 138.171 290.277 138.002 290.268 137.834V125.442C290.269 125.274 290.237 125.107 290.172 124.952C290.107 124.798 290.012 124.657 289.891 124.54C289.776 124.43 289.64 124.343 289.492 124.285C289.343 124.227 289.184 124.199 289.024 124.202L286.235 124.09Z" fill="#404041"/>
<defs>
<linearGradient id="paint0_linear_172_3010" x1="58.8702" y1="48.4235" x2="235.32" y2="48.4235" gradientUnits="userSpaceOnUse">
<stop stop-color="#D8AF56"/>
<stop offset="1" stop-color="#BC943C"/>
</linearGradient>
</defs>
</svg>
