<svg xmlns="http://www.w3.org/2000/svg" width="148" height="72" fill="none" xmlns:v="https://vecta.io/nano"><path d="M61.607 48.508L29.313 15.56 46.441.523h17.694l-5.659 6.108h-9.752l-10.582 9.266 23.56 23.964 8.243-8.082-15.619-15.769L70.246.561h24.88l-5.659 6.071h-16.75l-9.771 9.398 11.318 11.484L102.03.392l15.6 16.295-31.897 31.144-11.525-11.728-12.601 12.405zm16.977-16.596l7.262 7.349 23.239-22.723-7.224-7.499-23.277 22.874z" fill="url(#A)"/><path d="M5.093 65.48a1.59 1.59 0 0 1 .566.508 1.61 1.61 0 0 1 .17.733v2.782c.004.279-.054.555-.17.808a1.88 1.88 0 0 1-.415.639 2.13 2.13 0 0 1-.641.432c-.267.092-.548.137-.83.131H.189c-.132 0-.189 0-.189-.188V60.8c0-.132 0-.188.189-.188h3.358a2.22 2.22 0 0 1 .811.132 2.02 2.02 0 0 1 .66.432 1.88 1.88 0 0 1 .415.639 1.98 1.98 0 0 1 .151.808v1.88c-.003.189-.048.375-.133.544a1.26 1.26 0 0 1-.357.433zm-3.207-.752h1.188a.62.62 0 0 0 .453-.188.62.62 0 0 0 .245-.433v-1.165c-.006-.168-.073-.328-.189-.451-.074-.049-.158-.081-.246-.094s-.178-.006-.263.019H1.886v2.312zm1.999 2.368a.58.58 0 0 0-.189-.451.6.6 0 0 0-.2-.128c-.075-.029-.154-.043-.234-.041H1.886v3.308h1.377a.62.62 0 0 0 .434-.188.57.57 0 0 0 .146-.204.56.56 0 0 0 .043-.247v-2.049zm8.376-4.68H9.432v2.387h2.037c.113 0 .17 0 .17.188v1.372c0 .113 0 .188-.17.188H9.432v3.327h2.829a.17.17 0 0 1 .076.008c.024.008.046.022.064.04s.032.04.04.064.011.05.008.075v1.353c.003.025 0 .051-.008.075s-.022.046-.04.064a.17.17 0 0 1-.064.04c-.024.008-.05.011-.076.008H7.64c-.132 0-.189 0-.189-.188V60.894c0-.132 0-.188.189-.188h4.621a.17.17 0 0 1 .076.008c.024.008.046.022.064.04s.032.04.04.064.011.05.008.075v1.334c.003.025 0 .051-.008.075s-.022.046-.04.064a.17.17 0 0 1-.064.04c-.024.008-.05.011-.076.008zm6.319-1.879h1.434c.132 0 .189 0 .189.188V71.25c0 .132 0 .188-.189.188h-1.452a.19.19 0 0 1-.133-.035c-.039-.028-.065-.069-.074-.116l-2.622-6.86.17 2.989v3.909a.17.17 0 0 1-.008.075c-.008.024-.022.046-.04.064s-.04.032-.064.04a.17.17 0 0 1-.076.008h-1.452a.17.17 0 0 1-.076-.008c-.024-.008-.046-.022-.065-.04s-.032-.04-.04-.064-.011-.05-.008-.075V60.8c-.003-.026 0-.051.008-.075s.022-.046.04-.064a.17.17 0 0 1 .065-.04c.024-.008.05-.011.076-.008h1.585a.19.19 0 0 1 .133.035c.038.028.065.069.074.116l2.471 6.729-.132-3.308V60.8c0-.132.057-.263.189-.263zm7.319 2.951v-.677a.45.45 0 0 0-.151-.376.49.49 0 0 0-.178-.13c-.069-.029-.143-.043-.218-.039h-1.113a.59.59 0 0 0-.377.169.58.58 0 0 0-.17.376v1.654a.62.62 0 0 0 .189.432.56.56 0 0 0 .205.145.57.57 0 0 0 .248.043h1.49a1.89 1.89 0 0 1 1.415.526 1.88 1.88 0 0 1 .422.648 1.87 1.87 0 0 1 .125.762v2.519a2.29 2.29 0 0 1-.151.827c-.098.236-.238.453-.415.639-.189.182-.414.323-.66.413a2.23 2.23 0 0 1-.811.15h-1.886a1.89 1.89 0 0 1-.806-.108 1.88 1.88 0 0 1-1.123-1.119c-.094-.257-.131-.531-.108-.803v-1.485c0-.132 0-.188.189-.188h1.509a.17.17 0 0 1 .076.008c.024.008.046.022.065.04a.17.17 0 0 1 .04.064c.008.024.011.05.008.075v1.203c-.004.073.008.145.034.213a.53.53 0 0 0 .117.182c.051.052.115.089.183.115a.55.55 0 0 0 .213.035h1.019a.55.55 0 0 0 .213-.035c.068-.026.13-.065.183-.115s.091-.114.117-.182.038-.14.034-.213v-1.879a.64.64 0 0 0-.17-.451c-.06-.058-.131-.103-.209-.132s-.161-.042-.244-.037h-1.396a1.89 1.89 0 0 1-.767-.133c-.244-.097-.464-.244-.648-.431a1.88 1.88 0 0 1-.436-.654c-.098-.246-.142-.51-.13-.774V62.51a2.28 2.28 0 0 1 .151-.808 2.16 2.16 0 0 1 .415-.658 2.09 2.09 0 0 1 .641-.413 2.33 2.33 0 0 1 .83-.15h1.886a2.23 2.23 0 0 1 .811.15 1.88 1.88 0 0 1 .66.413 2.16 2.16 0 0 1 .415.658 2.28 2.28 0 0 1 .151.808v.902c0 .132 0 .188-.189.188h-1.509a.17.17 0 0 1-.189-.113zm3.546-.903a2.28 2.28 0 0 1 .151-.808 2.22 2.22 0 0 1 .434-.658 1.87 1.87 0 0 1 .641-.413 2.23 2.23 0 0 1 .811-.15h1.886c.277.003.552.053.811.15.237.097.455.238.641.413.183.192.33.414.434.658.093.259.138.533.132.808v6.954c.007.281-.038.562-.132.827a2.11 2.11 0 0 1-.434.639 2.08 2.08 0 0 1-.641.413c-.26.097-.534.148-.811.15h-1.886c-.269.014-.537-.028-.787-.126a1.91 1.91 0 0 1-.665-.438 2.03 2.03 0 0 1-.441-.674 2.02 2.02 0 0 1-.144-.792v-6.954zm1.886 6.691a.51.51 0 0 0 .331.515.51.51 0 0 0 .216.03h1.038a.51.51 0 0 0 .399-.147c.052-.052.092-.114.118-.183s.036-.142.03-.215v-6.465c.001-.069-.012-.138-.038-.203s-.064-.123-.113-.173a.58.58 0 0 0-.181-.125.55.55 0 0 0-.215-.044h-1.038a.55.55 0 0 0-.215.044c-.068.029-.13.072-.181.125s-.087.108-.113.173-.039.133-.038.203v6.465zm10.281-8.739h1.434c.132 0 .189 0 .189.188V71.25c0 .132 0 .188-.189.188h-1.453c-.047.006-.095-.007-.133-.035s-.065-.069-.074-.116l-2.622-6.936.17 2.989v3.909c.003.025 0 .051-.008.075s-.022.046-.04.064a.17.17 0 0 1-.065.04c-.024.008-.05.011-.076.008h-1.452a.17.17 0 0 1-.14-.048c-.018-.018-.032-.04-.04-.064s-.011-.05-.008-.075V60.725c-.003-.025 0-.051.008-.075s.022-.046.04-.064a.17.17 0 0 1 .14-.048h1.584c.047-.006.095.007.133.035s.065.069.074.116l2.414 6.804v-3.308V60.8c0-.132 0-.263.113-.263zm12.223 4.285c.026-.003.051 0 .076.008a.17.17 0 0 1 .064.04c.018.018.032.04.04.064s.011.05.008.075v1.334c.003.025 0 .051-.008.075s-.022.046-.04.064a.17.17 0 0 1-.064.04c-.024.008-.05.011-.076.008h-.509v3.007a2.29 2.29 0 0 1-.151.827c-.098.236-.238.453-.415.639-.189.182-.414.323-.66.413a2.23 2.23 0 0 1-.811.15h-1.886c-.269.014-.537-.028-.787-.126a1.91 1.91 0 0 1-.665-.438 2.03 2.03 0 0 1-.441-.674 2.02 2.02 0 0 1-.144-.792v-2.387a2.12 2.12 0 0 1 .17-.902 1.88 1.88 0 0 1 .472-.601 1.47 1.47 0 0 1-.518-.586 1.46 1.46 0 0 1-.143-.767V62.51a2.28 2.28 0 0 1 .151-.808 2.16 2.16 0 0 1 .415-.658 2.09 2.09 0 0 1 .641-.413 2.33 2.33 0 0 1 .83-.15h1.792a.17.17 0 0 1 .14.048c.018.018.032.04.04.064s.011.05.008.075v1.334c.003.025 0 .051-.008.075s-.022.046-.04.064a.17.17 0 0 1-.14.048h-1.377a.59.59 0 0 0-.377.169.58.58 0 0 0-.17.376v1.56a.58.58 0 0 0 .171.412c.11.109.258.171.413.171h1.603l.623-1.09v-.733c0-.132 0-.188.189-.188h1.547c.132 0 .189 0 .189.188v.752l-.547 1.071.396-.056zm-2.415 1.71h-1.622a.55.55 0 0 0-.413.166.57.57 0 0 0-.121.192c-.027.071-.037.148-.032.225v2.161c-.004.073.008.145.034.213a.53.53 0 0 0 .117.182c.051.052.115.089.183.115a.55.55 0 0 0 .213.035h1.151a.51.51 0 0 0 .516-.33c.026-.069.036-.142.03-.215l-.057-2.744zM63.55 60.8v10.525c0 .132 0 .188-.189.188h-1.509a.17.17 0 0 1-.14-.048c-.018-.018-.032-.04-.04-.064s-.011-.05-.008-.075V66.57h-1.886v4.755c.003.025 0 .051-.008.075a.17.17 0 0 1-.105.105c-.024.008-.05.011-.076.008H58.08c-.132 0-.189 0-.189-.188V60.8c0-.132 0-.188.189-.188h1.509c.025-.003.051 0 .076.008a.17.17 0 0 1 .105.105c.008.024.011.05.008.075v4.022h1.886V60.8c-.003-.025 0-.051.008-.075s.022-.046.04-.064a.17.17 0 0 1 .14-.048h1.509c.132-.075.189.056.189.188zm8.394 10.469a.17.17 0 0 1 0 .17c-.03.013-.062.019-.094.019s-.065-.006-.094-.019h-1.641a.15.15 0 0 1-.059-.004c-.019-.005-.037-.014-.053-.026a.15.15 0 0 1-.057-.101l-.302-1.673h-2.32l-.302 1.673a.15.15 0 0 1-.057.101c-.016.012-.034.021-.053.026a.15.15 0 0 1-.059.004H65.21a.19.19 0 0 1-.17 0 .19.19 0 0 1-.02-.085c0-.03.007-.058.02-.085l2.415-10.488c.002-.025.01-.049.021-.071s.028-.041.047-.057.041-.028.065-.035a.19.19 0 0 1 .074-.007h1.716c.051-.002.102.014.143.045a.23.23 0 0 1 .083.124l2.339 10.488zm-2.66-3.327l-.622-3.402-.17-1.297-.17 1.297-.641 3.402h1.603zm10.073 3.364c0 .15 0 .207-.132.207H77.64c-.047.007-.095-.002-.137-.026s-.073-.061-.09-.106l-1.32-3.985h-.811v3.928a.17.17 0 0 1-.008.075c-.008.024-.022.046-.04.064a.17.17 0 0 1-.064.04c-.024.008-.05.011-.076.008h-1.528c-.132 0-.189 0-.189-.188V60.8c0-.132 0-.188.189-.188h3.508a2.29 2.29 0 0 1 .811.132 2.23 2.23 0 0 1 .66.432c.176.186.317.403.415.639a2.36 2.36 0 0 1 .151.808v2.744a2.13 2.13 0 0 1-.321 1.146 2 2 0 0 1-.868.714l1.434 4.078zm-4.074-5.638h1.396a.59.59 0 0 0 .224-.043c.071-.029.136-.072.191-.126a.62.62 0 0 0 .151-.413v-2.18a.54.54 0 0 0-.032-.225.53.53 0 0 0-.121-.192.56.56 0 0 0-.189-.127.55.55 0 0 0-.224-.039h-1.396v3.346zm7.545-4.868v8.984h2.867c.132 0 .189 0 .189.188v1.353c0 .132 0 .188-.189.188h-4.584a.17.17 0 0 1-.076-.008c-.024-.008-.046-.022-.064-.04a.17.17 0 0 1-.049-.14V60.8a.17.17 0 0 1-.035-.1c-.001-.036.011-.072.032-.101a.17.17 0 0 1 .086-.063c.035-.011.072-.011.106 0h1.509a.17.17 0 0 1 .218.042c.025.032.038.072.036.112a.17.17 0 0 1-.046.108zm9.337 1.616h-2.924v2.387h2.131c.132 0 .189 0 .189.188v1.372c.003.025 0 .051-.008.075s-.022.046-.04.064a.17.17 0 0 1-.064.04c-.024.008-.05.011-.076.008h-2.131v3.327h2.924c.132 0 .189 0 .189.188v1.353c0 .132 0 .188-.189.188h-4.603c-.132 0-.189 0-.189-.188V60.894c0-.132 0-.188.189-.188h4.603c.132 0 .189 0 .189.188v1.334c.076.038-.057.188-.189.188zm1.603-1.879h1.679c.113 0 .189 0 .208.132l1.547 3.759 1.528-3.759s0-.132.226-.132h1.66c.151 0 .207 0 .151.207l-2.679 6.259v4.323c0 .132 0 .188-.189.188h-1.49c-.132 0-.189 0-.189-.188v-4.323l-2.641-6.184c0-.15.038-.282.189-.282zm14.167 0a2.29 2.29 0 0 1 .811.132c.244.104.467.25.66.432a2.1 2.1 0 0 1 .415.639c.097.259.148.532.151.808v2.688c.001.282-.051.563-.151.827a2.1 2.1 0 0 1-.415.639 2.17 2.17 0 0 1-.66.413 2.31 2.31 0 0 1-.811.15h-1.887v3.985c.003.026 0 .051-.008.075s-.022.046-.04.064-.041.032-.065.04a.17.17 0 0 1-.075.008h-1.509c-.132 0-.189 0-.189-.188V60.725c0-.132 0-.188.189-.188h3.584zm.15 2.293a.53.53 0 0 0-.038-.226c-.029-.072-.074-.136-.131-.188a.51.51 0 0 0-.396 0h-1.396v3.27h1.396a.5.5 0 0 0 .216-.041.51.51 0 0 0 .18-.128c.057-.052.101-.117.131-.188a.53.53 0 0 0 .038-.226V62.83zm5.094 8.495v-8.909h-1.774c-.025.003-.051 0-.075-.008s-.047-.022-.065-.04-.032-.04-.04-.064-.011-.05-.008-.075V60.8c-.003-.025 0-.051.008-.075s.022-.046.04-.064.041-.032.065-.04.05-.011.075-.008h5.546c.132 0 .189 0 .189.188v1.428c0 .132 0 .188-.189.188h-1.886v8.909c.003.025 0 .051-.008.075a.18.18 0 0 1-.041.064.17.17 0 0 1-.064.04c-.024.008-.05.011-.076.008h-1.509c-.094 0-.188-.056-.188-.188zm5.13-10.788h1.66c.132 0 .189 0 .227.132l1.527 3.759 1.547-3.759s.095-.132.208-.132h1.679c.15 0 .188 0 .15.207l-2.697 6.259v4.323c0 .132 0 .188-.189.188h-1.509c-.113 0-.169 0-.169-.188v-4.323l-2.641-6.184c0-.15.056-.282.207-.282zm12.337.263v8.984h2.886c.132 0 .188 0 .188.188v1.353c0 .132 0 .188-.188.188h-4.565c-.132 0-.189 0-.189-.188V60.8c0-.132 0-.188.189-.188h1.49c.132-.075.189.056.189.188zm5.281 10.525v-8.909h-1.773c-.132 0-.188 0-.188-.188V60.8c0-.132 0-.188.188-.188h5.433c.132 0 .188 0 .188.188v1.428c0 .132 0 .188-.188.188h-1.773v8.909c0 .132 0 .188-.189.188h-1.49c-.151 0-.208-.056-.208-.188zm5.301 0V60.8c0-.132 0-.188.189-.188h3.546c.282-.005.563.039.83.132a2.13 2.13 0 0 1 .641.432 1.87 1.87 0 0 1 .415.639 1.98 1.98 0 0 1 .151.808v6.879a1.87 1.87 0 0 1-.566 1.447 2.13 2.13 0 0 1-.641.432c-.267.092-.548.137-.83.131h-3.49c-.189 0-.245-.056-.245-.188zm1.886-9.003v7.518h1.396a.62.62 0 0 0 .434-.188.57.57 0 0 0 .146-.204.58.58 0 0 0 .043-.247v-6.202a.64.64 0 0 0-.048-.245c-.033-.078-.081-.148-.141-.206s-.125-.099-.2-.128-.154-.043-.234-.041l-1.396-.056z" fill="#404041"/><defs><linearGradient id="A" x1="29.313" y1="24.45" x2="117.63" y2="24.45" gradientUnits="userSpaceOnUse"><stop stop-color="#d8af56"/><stop offset="1" stop-color="#bc943c"/></linearGradient></defs></svg>