<svg width="61" height="60" viewBox="0 0 61 60" fill="none" xmlns="http://www.w3.org/2000/svg">
<path d="M0.5 30C0.5 13.4315 13.9315 0 30.5 0C47.0685 0 60.5 13.4315 60.5 30C60.5 46.5685 47.0685 60 30.5 60C13.9315 60 0.5 46.5685 0.5 30Z" fill="white"/>
<path d="M29.6015 24.3844L29.6645 25.4224L28.6152 25.2953C24.7961 24.8081 21.4596 23.1556 18.6267 20.3804L17.2417 19.0034L16.885 20.0203C16.1295 22.2871 16.6122 24.681 18.186 26.291C19.0254 27.1808 18.8365 27.3079 17.3886 26.7783C16.885 26.6088 16.4443 26.4817 16.4023 26.5453C16.2554 26.6935 16.7591 28.6214 17.1578 29.384C17.7034 30.4433 18.8155 31.4814 20.0326 32.0957L21.0609 32.583L19.8438 32.6042C18.6686 32.6042 18.6267 32.6254 18.7526 33.0702C19.1723 34.4473 20.83 35.909 22.6767 36.5446L23.9777 36.9895L22.8445 37.6674C21.1658 38.6419 19.1933 39.1927 17.2207 39.2351C16.2764 39.2563 15.5 39.341 15.5 39.4046C15.5 39.6164 18.0601 40.8028 19.55 41.2689C24.0197 42.6459 29.3287 42.0527 33.3157 39.7012C36.1486 38.0275 38.9815 34.7015 40.3035 31.4814C41.017 29.7654 41.7305 26.63 41.7305 25.1259C41.7305 24.1513 41.7934 24.0242 42.9685 22.8591C43.661 22.1811 44.3116 21.4397 44.4375 21.2278C44.6473 20.8253 44.6263 20.8253 43.5561 21.1854C41.7724 21.821 41.5206 21.7362 42.402 20.7829C43.0525 20.105 43.8289 18.8763 43.8289 18.5161C43.8289 18.4526 43.5141 18.5585 43.1574 18.7492C42.7797 18.961 41.9403 19.2788 41.3108 19.4694L40.1776 19.8296L39.1494 19.1305C38.5828 18.7492 37.7854 18.3255 37.3657 18.1983C36.2955 17.9017 34.6587 17.9441 33.6935 18.2831C31.0704 19.2364 29.4126 21.6939 29.6015 24.3844Z" fill="#C4C4C4"/>
</svg>
