<svg width="61" height="60" viewBox="0 0 61 60" fill="none" xmlns="http://www.w3.org/2000/svg">
<path d="M0.5 30C0.5 13.4315 13.9315 0 30.5 0C47.0685 0 60.5 13.4315 60.5 30C60.5 46.5685 47.0685 60 30.5 60C13.9315 60 0.5 46.5685 0.5 30Z" fill="white"/>
<path d="M45.8313 22.5915C45.4633 21.1778 44.3789 20.0645 43.002 19.6867C40.5067 19 30.5 19 30.5 19C30.5 19 20.4933 19 17.9978 19.6867C16.6209 20.0645 15.5365 21.1778 15.1685 22.5915C14.5 25.1538 14.5 30.5 14.5 30.5C14.5 30.5 14.5 35.846 15.1685 38.4085C15.5365 39.8222 16.6209 40.9355 17.9978 41.3135C20.4933 42 30.5 42 30.5 42C30.5 42 40.5067 42 43.002 41.3135C44.3789 40.9355 45.4633 39.8222 45.8313 38.4085C46.5 35.846 46.5 30.5 46.5 30.5C46.5 30.5 46.5 25.1538 45.8313 22.5915Z" fill="#C4C4C4"/>
<path d="M27.5 36V26L35.5 31.0002L27.5 36Z" fill="white"/>
</svg>
